<?xml version="1.0" encoding="UTF-8"?>
<svg id="Layer_2" data-name="Layer 2" xmlns="http://www.w3.org/2000/svg" viewBox="0 0 654.93 310.71">
  <defs>
    <style>
      .cls-1 {
        fill: #f4d700;
      }

      .cls-2 {
        fill: #0000fe;
      }
    </style>
  </defs>
  <g id="Layer_1-2" data-name="Layer 1">
    <g>
      <g>
        <path class="cls-2" d="m327.47,310.71c-5.55,0-10.97-1.03-16.13-3.06L28.02,196.46C10.73,189.67,0,173.91,0,155.35c0-18.57,10.74-34.31,28.02-41.1L311.34,3.05c5.16-2.02,10.59-3.05,16.13-3.05s10.97,1.02,16.13,3.05l283.32,111.21c17.28,6.78,28.02,22.53,28.02,41.09,0,18.57-10.73,34.32-28.02,41.11l-283.31,111.19c-5.16,2.03-10.59,3.06-16.14,3.06Zm0-310.1c-5.47,0-10.82,1.01-15.91,3.01L28.24,114.82C11.2,121.5.61,137.03.61,155.35c0,18.31,10.59,33.85,27.63,40.55l283.31,111.19c5.09,2,10.44,3.02,15.91,3.02s10.82-1.01,15.91-3.01l283.31-111.19c17.05-6.7,27.63-22.23,27.63-40.55,0-18.31-10.59-33.84-27.63-40.53L343.37,3.61c-5.09-1.99-10.44-3-15.91-3Z"/>
        <path class="cls-2" d="m623.24,187.11l-283.31,111.19c-8.02,3.15-16.92,3.15-24.93,0L31.69,187.11c-28.86-11.34-28.86-52.18,0-63.51L315.01,12.4c8.01-3.14,16.91-3.14,24.93,0l283.31,111.2c28.86,11.33,28.86,52.18,0,63.51Z"/>
      </g>
      <g>
        <path class="cls-1" d="m268.37,143.83c5.94.15,12.97-.38,19.96.58,2.84.39,5.62.99,8.27,2.12,8.02,3.43,10.96,9.79,8.42,18.13-1.63,5.34-4.8,9.48-9.57,12.35-1.06.64-1.25,1.17-.84,2.35,2.25,6.5,4.37,13.04,6.62,19.54.46,1.33.34,1.69-1.14,1.68-7.58-.06-15.15-.06-22.73,0-1.24,0-1.69-.46-2.05-1.57-1.53-4.78-3.33-9.48-4.69-14.3-.67-2.38-2.25-1.74-3.74-1.82-1.79-.1-1.28,1.44-1.44,2.26-.88,4.57-1.65,9.15-2.39,13.75-.2,1.24-.6,1.72-2,1.7-7.39-.09-14.78-.07-22.17-.01-1.37.01-1.65-.36-1.41-1.69,3.22-17.87,6.41-35.76,9.55-53.64.21-1.22.72-1.45,1.83-1.44,6.15.05,12.3.02,19.51.02Zm10.5,16.35c.05-4.71-2.77-7.2-7.05-6.68-.73.09-.89.41-1,1.03-1,5.86-2.01,11.71-3.06,17.56-.16.89.14,1.03.93,1.06,3.04.12,5.45-1.02,7.14-3.55,1.97-2.96,2.85-6.28,3.04-9.43Z"/>
        <path class="cls-1" d="m233.77,146.16c-.59,2.21-.94,4.49-1.21,6.77-.16,1.39-.63,1.64-2.01,1.47-6.6-.81-13.22-1.34-19.84-.26-12.56,2.04-20.57,13.23-18.36,25.8,1.12,6.32,5.48,9.46,11.68,10.58,1.07.2,1.1-.5,1.22-1.17.62-3.6,1.23-7.21,1.88-11.05h-7.97c.5-3.01,1-5.88,1.43-8.76.15-.98.69-1.11,1.54-1.1,9.44.02,18.88.03,28.32-.01,1.26,0,1.59.29,1.36,1.57-1.35,7.31-2.62,14.64-3.92,21.96-.31,1.77-.66,3.53-.94,5.3l-.05.26-.46,2.57c-.14.76-.8,1.32-1.58,1.32h-22.13c-6.75.06-13.51-.68-20.27-2.63-3.67-1.06-7.09-2.68-10.05-5.12-7.7-6.34-8.74-14.6-6.43-23.63,2.46-9.62,8.64-16.28,17.35-20.74,7.08-3.62,14.7-5.19,22.54-5.94,8.69-.83,17.36-.22,26.04.38,1.72.12,2.36.54,1.86,2.4Z"/>
        <path class="cls-1" d="m303.73,200.55c2.92-5.4,5.65-10.46,8.39-15.52,7.16-13.19,14.34-26.37,21.46-39.58.64-1.19,1.32-1.67,2.71-1.66,7.76.07,15.53.07,23.29,0,1.31-.01,1.78.33,2.01,1.68,3.11,17.71,6.29,35.4,9.5,53.09.27,1.48.11,2.04-1.62,2.02-7.76-.09-15.53-.07-23.29-.01-1.28.01-1.71-.41-1.85-1.63-.28-2.46-.76-4.9-1.05-7.36-.11-.94-.43-1.25-1.37-1.24-5.03.04-10.06.04-15.09,0-.92,0-1.3.42-1.65,1.16-1.24,2.63-2.54,5.24-3.82,7.87-.3.61-.5,1.21-1.42,1.2-5.27-.04-10.53-.02-16.21-.02Zm35.45-37.47c-2.86,5.8-5.47,11.11-8.1,16.4-.43.87-.09,1.06.74,1.06,2.85-.02,5.7-.05,8.54.01,1.15.03,1.34-.39,1.17-1.43-.42-2.56-.72-5.14-1.1-7.72-.38-2.6-.78-5.2-1.26-8.33Z"/>
        <path class="cls-1" d="m463.03,200.55c-8.01,0-16.02-.04-24.03.03-1.48.01-1.76-.37-1.51-1.79,3.19-17.75,6.34-35.51,9.43-53.28.24-1.4.8-1.73,2.15-1.72,15.77.05,31.54.05,47.31,0,1.58,0,1.86.42,1.52,1.87-.5,2.11-.85,4.25-1.17,6.39-.17,1.1-.58,1.51-1.78,1.5-7.33-.06-14.65.01-21.98-.07-1.52-.02-2.17.3-2.37,1.93-.36,2.95-.92,5.88-1.57,8.78-.32,1.43.14,1.65,1.43,1.64,6.89-.05,13.78,0,20.67-.05,1.37-.01,1.69.31,1.37,1.67-.51,2.17-.85,4.39-1.14,6.6-.16,1.21-.63,1.61-1.89,1.59-6.83-.07-13.66.01-20.49-.07-1.48-.02-1.99.4-2.21,1.87-.57,3.86-1.29,7.7-2.05,11.53-.29,1.44-.02,1.92,1.57,1.9,7.45-.08,14.9,0,22.35-.07,1.67-.02,1.98.42,1.57,1.99-.52,2.03-.84,4.13-1.09,6.22-.15,1.27-.67,1.57-1.9,1.56-8.07-.06-16.14-.03-24.21-.03Z"/>
        <path class="cls-1" d="m412.9,201.44c-6.48-.11-13.45-.79-20.08-3.38-11.66-4.55-16.79-14.18-14.4-26.47,1.99-10.26,7.89-17.46,16.97-22.25,6.86-3.62,14.31-5.17,21.96-5.96,5.96-.62,11.91-.38,17.86.05,1.41.1,1.74.47,1.36,1.9-1.06,3.89-1.96,7.81-2.87,11.74-.26,1.11-.51,1.59-1.76.91-2.29-1.25-4.67-2.34-7-3.52-2.23-1.12-4.68-.89-6.99-.14-3.23,1.04-5.88,2.93-7.84,5.7-3.76,5.31-5.34,11.33-5.1,17.74.28,7.45,4.78,11.97,12.21,12.84,3,.35,5.95.24,8.86-.59,1-.29,1.43-.19,1.43,1.02,0,2.48.11,4.96.28,7.44.08,1.2-.2,1.72-1.51,1.93-4.25.65-8.5,1.01-13.37,1.04Z"/>
        <g>
          <path class="cls-1" d="m83.4,110.75c-.06.41-.17.79-.15,1.17.13,3,.04,6.03.77,8.97,1.07,4.27,2.79,8.24,5.47,11.78,2.29,3.01,5.04,5.52,8.26,7.47,2.04,1.24,4.23,2.27,6.41,3.26,4.17,1.88,8.36,3.72,12.57,5.49,5,2.1,10.02,4.11,15.05,6.14,3.33,1.34,6.67,2.66,10.02,3.96,2.28.89,4.57,1.73,6.86,2.6.1.04.19.08.22.09-1.54,15.32,3.84,27.37,16.75,36.08-.02-.17-.02-.23-.04-.27-1.36-2.04-2.25-4.3-3.1-6.57-1.1-2.98-1.94-6.04-2.41-9.18-.61-4.03-.75-8.09-.03-12.13.43-2.41.91-4.8,1.73-7.11.15-.42.15-.62-.27-.89-4.3-2.78-8.59-5.58-12.88-8.38-3.49-2.28-6.98-4.56-10.47-6.83-5.16-3.35-10.33-6.67-15.48-10.03-5.9-3.84-11.78-7.71-17.68-11.55-6.71-4.37-13.42-8.73-20.14-13.09-.46-.3-.93-.6-1.46-.95Z"/>
          <path class="cls-1" d="m145.65,171.15c-.07-1.52-.19-2.95-.19-4.37,0-1.25.15-2.5.25-3.74.03-.36-.04-.57-.42-.72-5.27-2.05-10.53-4.13-15.8-6.2-3.85-1.51-7.69-3.03-11.54-4.53-4.13-1.61-8.27-3.21-12.4-4.82-5.44-2.12-10.87-4.25-16.31-6.39-1.02-.4-2.04-.81-3.16-1.26.08.46.14.84.21,1.21,1.06,5.07,3.32,9.55,6.59,13.54,3.09,3.77,6.93,6.55,11.35,8.6,3.02,1.4,6.2,2.26,9.45,2.91,2.9.58,5.82,1.08,8.72,1.61,2.98.55,5.97,1.1,8.95,1.64,4.57.82,9.15,1.64,13.73,2.45.16.03.32.04.57.08Z"/>
          <path class="cls-1" d="m147.71,180.97c-.09-.31-.13-.53-.21-.74-.81-2.19-1.27-4.47-1.66-6.76-.02-.12-.17-.29-.27-.31-2.36-.36-4.72-.71-7.08-1.05-4.51-.66-9.02-1.32-13.52-1.99-2.36-.35-4.71-.76-7.06-1.12-2.25-.34-4.52-.62-6.77-.96-4.03-.61-8.05-1.24-12.08-1.86-.79-.12-1.58-.2-2.5-.31.22.39.38.71.58,1.02,2.32,3.51,5.11,6.57,8.47,9.11,2.71,2.05,5.66,3.65,8.89,4.7,3.02.98,6.12,1.45,9.31,1.39,7.57-.13,15.13-.49,22.69-1.05.37-.03.75-.04,1.21-.06Z"/>
          <path class="cls-1" d="m115.55,186.19c.44.54.82,1.02,1.22,1.49,1.83,2.13,4.15,3.51,6.76,4.48,3.58,1.34,7.27,1.42,10.99.88,5.12-.74,10.13-1.99,15.12-3.32.66-.17,1.31-.37,1.96-.53.37-.09.38-.23.19-.53-.79-1.23-1.54-2.49-2.33-3.71-.11-.16-.38-.31-.58-.31-1.6.04-3.2.1-4.8.17-3.67.16-7.34.32-11.01.49-5.66.27-11.32.55-16.98.83-.14,0-.29.03-.54.05Z"/>
          <path class="cls-1" d="m156.91,194.37c-.97-.97-1.93-1.94-2.91-2.88-.1-.09-.37-.09-.53-.03-2.1.76-4.19,1.54-6.29,2.29-4.47,1.6-8.95,3.19-13.43,4.79-.15.05-.3.1-.46.15l-.05.15c.94.49,1.86,1.04,2.84,1.44,3.71,1.52,7.42,1.3,11.07-.21,3.44-1.42,6.58-3.36,9.57-5.55.06-.04.11-.09.18-.15Z"/>
        </g>
        <g>
          <path class="cls-1" d="m571.27,108.4c.09.4.22.77.24,1.14.09,2.98.41,5.96-.1,8.93-.74,4.3-2.15,8.36-4.54,12.06-2.04,3.15-4.58,5.83-7.61,8-1.93,1.38-4.02,2.56-6.1,3.7-3.98,2.17-7.99,4.3-12.03,6.36-4.79,2.44-9.61,4.81-14.43,7.19-3.2,1.58-6.41,3.12-9.62,4.66-2.19,1.05-4.39,2.05-6.59,3.08-.09.04-.18.09-.21.1,2.66,15.05-1.77,27.37-13.89,36.93.01-.17,0-.23.02-.27,1.2-2.12,1.91-4.42,2.58-6.73.87-3.03,1.47-6.12,1.7-9.26.3-4.03.14-8.06-.87-12.01-.6-2.35-1.25-4.68-2.24-6.91-.18-.41-.2-.6.2-.9,4.05-3.07,8.08-6.16,12.12-9.24,3.29-2.51,6.56-5.03,9.86-7.54,4.85-3.69,9.72-7.37,14.57-11.07,5.55-4.24,11.08-8.5,16.63-12.74,6.31-4.82,12.63-9.63,18.95-14.44.44-.33.88-.66,1.38-1.04Z"/>
          <path class="cls-1" d="m514.16,172.76c-.04-1.51-.03-2.93-.14-4.34-.1-1.23-.33-2.46-.52-3.69-.06-.35,0-.56.36-.74,5.06-2.42,10.12-4.87,15.17-7.3,3.69-1.78,7.39-3.57,11.08-5.34,3.97-1.9,7.94-3.79,11.91-5.69,5.22-2.5,10.44-5.01,15.66-7.53.98-.47,1.96-.96,3.03-1.48-.05.47-.07.84-.12,1.22-.67,5.09-2.58,9.7-5.52,13.88-2.78,3.96-6.37,7-10.59,9.35-2.89,1.61-5.97,2.7-9.13,3.58-2.83.78-5.67,1.5-8.51,2.24-2.91.76-5.82,1.53-8.73,2.28-4.46,1.15-8.93,2.3-13.4,3.44-.16.04-.31.07-.56.12Z"/>
          <path class="cls-1" d="m512.85,182.62c.06-.32.09-.54.15-.75.64-2.23.92-4.51,1.14-6.81.01-.12.14-.3.25-.32,2.3-.53,4.61-1.05,6.92-1.57,4.41-.99,8.82-1.97,13.23-2.97,2.31-.52,4.6-1.1,6.91-1.63,2.2-.5,4.42-.95,6.62-1.45,3.94-.9,7.88-1.83,11.81-2.73.77-.18,1.55-.31,2.45-.49-.19.4-.33.73-.5,1.05-2.04,3.64-4.57,6.88-7.71,9.64-2.53,2.23-5.33,4.03-8.45,5.3-2.91,1.19-5.95,1.88-9.11,2.07-7.5.44-15.01.64-22.52.64-.37,0-.74.02-1.2.03Z"/>
          <path class="cls-1" d="m545.05,185.4c-.4.57-.73,1.07-1.09,1.56-1.65,2.24-3.85,3.78-6.35,4.94-3.45,1.59-7.09,1.95-10.81,1.69-5.12-.36-10.17-1.22-15.2-2.17-.66-.12-1.32-.27-1.98-.38-.37-.06-.4-.19-.23-.51.69-1.28,1.34-2.57,2.03-3.85.09-.17.36-.34.55-.35,1.59-.08,3.17-.14,4.76-.18,3.64-.11,7.28-.23,10.93-.33,5.62-.15,11.24-.29,16.86-.44.14,0,.29,0,.53.01Z"/>
          <path class="cls-1" d="m504.75,196.56c.89-1.03,1.76-2.06,2.66-3.06.09-.1.36-.11.52-.07,2.13.59,4.26,1.21,6.39,1.8,4.54,1.26,9.09,2.5,13.64,3.74.15.04.31.07.46.11l.06.14c-.9.55-1.76,1.17-2.7,1.64-3.56,1.78-7.24,1.84-10.97.62-3.5-1.15-6.76-2.83-9.88-4.79-.06-.04-.12-.08-.19-.14Z"/>
        </g>
      </g>
    </g>
  </g>
</svg>